<?xml version="1.0" standalone="no"?>
<!DOCTYPE svg PUBLIC "-//W3C//DTD SVG 20010904//EN"
 "http://www.w3.org/TR/2001/REC-SVG-20010904/DTD/svg10.dtd">
<svg version="1.0" xmlns="http://www.w3.org/2000/svg"
 width="260.000000pt" height="260.000000pt" viewBox="0 0 260.000000 260.000000"
 preserveAspectRatio="xMidYMid meet">
<metadata>
Created by potrace 1.11, written by Peter Selinger 2001-2013
</metadata>
<g transform="translate(0.000000,260.000000) scale(0.100000,-0.100000)"
fill="#000000" stroke="none">
<path d="M51 2518 c11 -40 40 -116 66 -168 39 -79 60 -108 137 -185 129 -129
261 -225 656 -475 524 -333 761 -530 863 -720 55 -103 71 -162 64 -246 -14
-187 -166 -333 -538 -518 -91 -46 -180 -88 -199 -94 -18 -7 -31 -14 -28 -17 6
-6 244 75 348 120 155 65 393 216 476 302 94 97 130 185 121 301 -16 231 -216
515 -529 753 -142 109 -323 216 -592 350 -143 71 -265 133 -270 138 -6 5 -38
23 -71 41 -269 147 -403 269 -494 448 -12 23 -23 42 -26 42 -2 0 5 -33 16 -72z"/>
<path d="M1194 2224 c-85 -29 -112 -122 -66 -226 30 -68 90 -128 238 -239 72
-54 156 -124 188 -154 31 -30 56 -53 56 -50 0 10 -71 118 -117 177 -100 131
-121 217 -67 271 38 38 174 85 294 102 56 8 64 15 19 16 -86 4 -133 14 -284
64 -148 49 -207 57 -261 39z"/>
<path d="M134 2150 c4 -14 28 -66 53 -117 36 -74 60 -107 121 -169 129 -128
314 -259 547 -388 37 -21 179 -119 260 -180 291 -219 431 -367 493 -521 55
-134 5 -274 -152 -427 l-41 -40 65 43 c87 59 211 185 241 245 34 68 33 185 -1
264 -58 134 -169 269 -325 394 -159 127 -259 194 -585 390 -333 201 -472 304
-614 457 -49 53 -67 67 -62 49z"/>
<path d="M290 1745 c0 -23 107 -163 185 -241 108 -109 188 -173 355 -283 322
-213 397 -269 508 -378 50 -50 90 -100 103 -127 24 -56 30 -143 15 -218 -7
-32 -11 -58 -9 -58 7 0 42 79 53 120 30 110 4 223 -75 328 -39 52 -144 157
-236 237 -55 48 -237 176 -324 228 -108 65 -97 58 -215 128 -118 70 -225 148
-306 222 -30 27 -54 46 -54 42z"/>
</g>
</svg>
